<svg width="110" height="55" viewBox="0 0 110 55" fill="none" xmlns="http://www.w3.org/2000/svg">
<path d="M18 10L49 10" stroke="#00FFE7" stroke-opacity="0.4" stroke-width="4" stroke-linecap="round"/>
<path d="M25 25L49 25" stroke="#00FFE7" stroke-opacity="0.4" stroke-width="4" stroke-linecap="round"/>
<path d="M10 17L49 17" stroke="#00FFE7" stroke-opacity="0.4" stroke-width="4" stroke-linecap="round"/>
<path d="M60.9223 37.9228C61.4426 36.8386 62.1651 35.8772 63.0461 35.0969C63.9271 34.3166 64.9484 33.7334 66.0482 33.3826C67.148 33.0317 68.3035 32.9206 69.445 33.0558C70.5865 33.191 71.6903 33.5698 72.6897 34.1692C73.6891 34.7687 74.5634 35.5764 75.2597 36.5436C75.9561 37.5108 76.4601 38.6174 76.7413 39.7966C77.0225 40.9757 77.0751 42.203 76.8959 43.4043C76.7167 44.6056 76.3093 45.756 75.6985 46.786L68.5 42L60.9223 37.9228Z" fill="#00FFE7" fill-opacity="0.65"/>
<path d="M77 42C77 40.2876 76.5386 38.6107 75.6699 37.1662C74.8013 35.7217 73.5615 34.5696 72.096 33.8451L68.5 42H77Z" fill="#00FFE8" fill-opacity="0.78"/>
<path d="M60.9499 37.8657C60.3239 39.1473 59.9982 40.5694 60 42.0122C60.0019 43.455 60.3313 44.8762 60.9605 46.156C61.5898 47.4358 62.5004 48.5366 63.6156 49.3657C64.7308 50.1948 66.018 50.7278 67.3685 50.9199L68.5 42L60.9499 37.8657Z" fill="#00FFE8" fill-opacity="0.24"/>
<path d="M67.4104 50.9257C69.0143 51.1453 70.6442 50.8757 72.1085 50.1487C73.5728 49.4217 74.8109 48.2675 75.6773 46.8215L68.5 42L67.4104 50.9257Z" fill="#00FFE8" fill-opacity="0.21"/>
<path d="M67.4104 50.9257C69.0143 51.1453 70.6442 50.8757 72.1085 50.1487C73.5728 49.4217 74.8109 48.2675 75.6773 46.8215L68.5 42L67.4104 50.9257Z" fill="#00FFE8" fill-opacity="0.21"/>
<rect x="30" y="33" width="5" height="15" rx="1" fill="#00FFE8" fill-opacity="0.76"/>
<rect x="24" y="40" width="4" height="8" rx="1" fill="#00FFE8" fill-opacity="0.51"/>
<rect x="17" y="43" width="5" height="5" rx="1" fill="#06CEC5" fill-opacity="0.17"/>
<path d="M5.16138 6.50888C5.45656 3.26185 8.19818 0.787239 11.4584 0.825148L83.5414 1.66332C87.1461 1.70524 89.968 4.77958 89.7017 8.3746L86.7323 48.4617C86.4905 51.7254 83.772 54.25 80.4993 54.25H7.66523C3.99003 54.25 1.10816 51.0943 1.4409 47.4342L5.16138 6.50888Z" stroke="#00FFE8" stroke-width="1.5"/>
<rect x="83.8211" y="30.6895" width="30" height="4" rx="1.5" transform="rotate(32.1702 83.8211 30.6895)" fill="#0B2748" stroke="#00FFE8"/>
<g filter="url(#filter0_d_42_1443)">
<ellipse cx="69" cy="22.5" rx="18" ry="18.5" fill="#00FFE7" fill-opacity="0.1" shape-rendering="crispEdges"/>
<path d="M86.25 22.5C86.25 32.3226 78.5077 40.25 69 40.25C59.4923 40.25 51.75 32.3226 51.75 22.5C51.75 12.6774 59.4923 4.75 69 4.75C78.5077 4.75 86.25 12.6774 86.25 22.5Z" stroke="#00FFE8" stroke-width="1.5" shape-rendering="crispEdges"/>
</g>
<circle cx="83.5" cy="19.5" r="1.5" fill="#00FFE8" fill-opacity="0.4"/>
<path d="M56 17C57.6276 14.3333 62.3672 9 68.3047 9C75.7266 9 80.4141 15.0488 81 16.0244" stroke="#00FFE7" stroke-opacity="0.4" stroke-width="3" stroke-linecap="round"/>
<defs>
<filter id="filter0_d_42_1443" x="47" y="4" width="44" height="45" filterUnits="userSpaceOnUse" color-interpolation-filters="sRGB">
<feFlood flood-opacity="0" result="BackgroundImageFix"/>
<feColorMatrix in="SourceAlpha" type="matrix" values="0 0 0 0 0 0 0 0 0 0 0 0 0 0 0 0 0 0 127 0" result="hardAlpha"/>
<feOffset dy="4"/>
<feGaussianBlur stdDeviation="2"/>
<feComposite in2="hardAlpha" operator="out"/>
<feColorMatrix type="matrix" values="0 0 0 0 0 0 0 0 0 0 0 0 0 0 0 0 0 0 0.5 0"/>
<feBlend mode="normal" in2="BackgroundImageFix" result="effect1_dropShadow_42_1443"/>
<feBlend mode="normal" in="SourceGraphic" in2="effect1_dropShadow_42_1443" result="shape"/>
</filter>
</defs>
</svg>
