<svg width="52" height="66" viewBox="0 0 52 66" fill="none" xmlns="http://www.w3.org/2000/svg">
<rect y="13" width="11" height="53" rx="2" fill="#00FFE8" fill-opacity="0.25"/>
<rect x="14" y="27" width="11" height="39" rx="2" fill="#00FFE8" fill-opacity="0.5"/>
<rect x="28" y="44" width="10" height="22" rx="2" fill="#00FFE8" fill-opacity="0.75"/>
<rect x="41" y="51" width="11" height="15" rx="2" fill="#00FFE8"/>
<path d="M10 4.5L10.6649 4.15308L10.531 3.89635L10.2593 3.79624L10 4.5ZM16 16L15.3351 16.3469L15.4214 16.5123L15.5751 16.618L16 16ZM32 27L32.5431 26.4828L32.4892 26.4262L32.4249 26.382L32 27ZM42 37.5L41.4569 38.0172L41.5723 38.1384L41.7282 38.199L42 37.5ZM51 41L45.5794 34.246L42.4405 42.3174L51 41ZM0.240721 1.70376L9.74072 5.20376L10.2593 3.79624L0.759279 0.296243L0.240721 1.70376ZM9.33506 4.84692L15.3351 16.3469L16.6649 15.6531L10.6649 4.15308L9.33506 4.84692ZM15.5751 16.618L31.5751 27.618L32.4249 26.382L16.4249 15.382L15.5751 16.618ZM31.4569 27.5172L41.4569 38.0172L42.5431 36.9828L32.5431 26.4828L31.4569 27.5172ZM41.7282 38.199L44.4371 39.2525L44.9808 37.8545L42.2718 36.801L41.7282 38.199Z" fill="#00FFE8"/>
</svg>
