<svg width="136" height="58" viewBox="0 0 136 58" fill="none" xmlns="http://www.w3.org/2000/svg">
<path d="M65.6963 20.3457V24.0688H63.8652V20.3457H65.6963ZM65.4766 40.2798V43.5391H63.6577V40.2798H65.4766ZM67.918 36.4224C67.918 35.9341 67.8081 35.4946 67.5884 35.104C67.3687 34.7134 67.0065 34.3553 66.502 34.0298C65.9974 33.7043 65.3219 33.4032 64.4756 33.1265C63.4502 32.8091 62.5632 32.4225 61.8145 31.9668C61.0739 31.5111 60.5002 30.9455 60.0933 30.27C59.6945 29.5946 59.4951 28.7767 59.4951 27.8164C59.4951 26.8154 59.7108 25.9528 60.1421 25.2285C60.5734 24.5042 61.1838 23.9468 61.9731 23.5562C62.7625 23.1655 63.6903 22.9702 64.7563 22.9702C65.5864 22.9702 66.327 23.0964 66.978 23.3486C67.6291 23.5928 68.1784 23.959 68.626 24.4473C69.0817 24.9355 69.4276 25.5337 69.6636 26.2417C69.9077 26.9497 70.0298 27.7676 70.0298 28.6953H67.7837C67.7837 28.1501 67.7186 27.6496 67.5884 27.1938C67.4582 26.7381 67.2629 26.3434 67.0024 26.0098C66.742 25.668 66.4246 25.4076 66.0503 25.2285C65.6759 25.0413 65.2446 24.9478 64.7563 24.9478C64.0728 24.9478 63.5072 25.0658 63.0596 25.3018C62.6201 25.5378 62.2946 25.8714 62.083 26.3027C61.8714 26.7259 61.7656 27.2183 61.7656 27.7798C61.7656 28.3006 61.8714 28.7563 62.083 29.147C62.2946 29.5376 62.6527 29.8916 63.1572 30.209C63.6699 30.5182 64.3739 30.8234 65.269 31.1245C66.3188 31.4582 67.21 31.8529 67.9424 32.3086C68.6748 32.7562 69.2323 33.3096 69.6147 33.9688C69.9972 34.6198 70.1885 35.4295 70.1885 36.3979C70.1885 37.4478 69.9525 38.3348 69.4805 39.0591C69.0085 39.7752 68.3452 40.3205 67.4907 40.6948C66.6362 41.0692 65.6353 41.2563 64.4878 41.2563C63.7961 41.2563 63.1125 41.1628 62.437 40.9756C61.7616 40.7884 61.1512 40.4832 60.606 40.0601C60.0607 39.6287 59.6253 39.0632 59.2998 38.3633C58.9743 37.6553 58.8115 36.7886 58.8115 35.7632H61.082C61.082 36.4549 61.1797 37.0286 61.375 37.4844C61.5785 37.932 61.847 38.29 62.1807 38.5586C62.5143 38.819 62.8805 39.0062 63.2793 39.1201C63.6862 39.2259 64.089 39.2788 64.4878 39.2788C65.2202 39.2788 65.8387 39.1649 66.3433 38.937C66.856 38.701 67.2466 38.3674 67.5151 37.936C67.7837 37.5047 67.918 37.0002 67.918 36.4224Z" fill="#00FFE8"/>
<path d="M0 12L20 23.547V0.452994L0 12ZM50 10L14 10V14L50 14V10Z" fill="#00FFE8" fill-opacity="0.6"/>
<path d="M136 46L116 34.453V57.547L136 46ZM86 48H122V44H86V48Z" fill="#00FFE8" fill-opacity="0.6"/>
<circle cx="65" cy="33" r="20.5" stroke="#00FFE8"/>
</svg>
