<svg width="52" height="72" viewBox="0 0 52 72" fill="none" xmlns="http://www.w3.org/2000/svg">
<path d="M40.6348 23.899C46.9994 20.0349 47.5297 9.05109 46.9994 4.04218H4.03857C4.56896 8.8722 5.62972 16.9222 11.9943 23.3623C18.3589 29.8023 25.7842 27.119 25.7842 33.0223C25.7842 38.389 25.7842 39.4624 23.1319 39.999C5.31106 45.5804 4.74532 60.5714 6.69006 67.3692H46.4687C50.1814 47.5124 33.2094 40.5357 30.5575 39.999C27.9056 39.4624 28.9664 36.2424 28.9664 31.4123C28.9664 26.5823 32.6791 28.729 40.6348 23.899Z" stroke="#00FFE7"/>
<rect y="67.3691" width="51.2006" height="4.04215" fill="#00FFE8"/>
<rect width="51.2006" height="4.04215" fill="#00FFE8"/>
<ellipse cx="27.8549" cy="17.2143" rx="18.481" ry="4.32796" transform="rotate(-6.50669 27.8549 17.2143)" fill="#00FFE7" fill-opacity="0.41"/>
<path d="M26.548 53.8954C26.548 58.6382 16.7464 64.8542 12.123 67.3693H40.4181C34.6481 67.3693 28.9521 58.3867 26.548 53.8954Z" fill="#00FFE7" fill-opacity="0.85"/>
<path d="M16.4869 26.6249C13.6351 25.4687 11.0571 22.7725 9.42822 20.0208C25.5003 24.4236 40.1968 19.287 45.8076 16.1685C45.2646 24.9739 31.6902 27.1752 30.0613 28.2759C28.7581 29.1565 26.8034 46.6206 26.2605 55.2426C26.2605 48.0882 25.7175 33.4491 25.7175 32.1283C25.7175 30.4773 19.2018 27.7256 16.4869 26.6249Z" fill="#00FFE8" fill-opacity="0.85"/>
</svg>
