<svg width="624" height="625" viewBox="0 0 624 625" fill="none" xmlns="http://www.w3.org/2000/svg">
<path d="M622.411 285.816C616.905 225.931 594.437 168.874 557.657 121.371C522.055 75.6983 474.741 40.5889 420.776 19.7978C362.849 -2.25436 299.576 -5.98409 239.471 9.11047C183.37 23.1258 132.115 52.1482 91.1732 93.0821C85.7829 98.5164 80.5267 104.097 75.574 109.941C70.6992 114.487 67.0577 120.202 64.9917 126.548C64.4776 129.097 64.6145 131.736 65.3896 134.218C66.1647 136.7 67.553 138.945 69.4253 140.745C74.168 145.167 81.991 146.01 88.0055 147.765L132.861 160.558C140.981 162.898 149.119 165.132 157.222 167.513C163.485 170.154 170.061 171.975 176.788 172.93C183.398 173.012 182.814 164.009 183.304 159.412C184.15 151.403 185.387 143.424 186.431 135.428C187.96 123.775 188.421 103.928 205.099 105.536C212.158 106.215 219.001 111.561 225.039 114.895L246.857 126.981L289.442 150.555L377.257 199.195L397.336 210.309C403.852 212.938 409.817 216.772 414.919 221.611C416.609 223.779 417.659 226.378 417.951 229.113C418.243 231.849 417.764 234.612 416.57 237.089C415.328 239.516 413.506 241.597 411.266 243.145C409.027 244.694 406.44 245.662 403.736 245.963C340.732 260.002 277.495 273.181 214.381 286.788C199.353 290.028 184.302 293.181 169.292 296.521C166.491 297.608 163.485 298.06 160.49 297.844C157.494 297.629 154.584 296.752 151.966 295.275C149.808 293.705 148.091 291.602 146.984 289.169C145.877 286.736 145.417 284.058 145.648 281.394C147.193 273.859 149.773 266.575 153.314 259.75C156.19 252.468 159.147 245.208 162.006 237.926C163.412 234.346 164.742 230.73 166.247 227.197C167.642 224.705 168.57 221.976 168.983 219.148C169.199 212.129 161.026 213.141 156.26 212.614L59.1172 201.868C51.7667 201.055 44.4105 200.043 37.0426 199.464C34.1386 198.92 31.149 199.047 28.3013 199.835C25.4536 200.624 22.8228 202.054 20.6091 204.015C16.7579 209.308 14.2438 215.458 13.282 221.938C11.2227 229.303 9.23922 236.679 7.58246 244.167C-6.49091 306.143 -0.879493 370.982 23.6309 429.601C46.5828 483.041 83.4436 529.309 130.352 563.558C178.632 599.213 236.04 620.343 295.859 624.476C356.411 628.057 416.629 613.207 468.618 581.873C492.794 567.305 514.938 549.586 534.469 529.18C539.425 524.951 543.531 519.812 546.568 514.041C547.678 511.025 547.878 507.749 547.145 504.621C546.412 501.492 544.776 498.649 542.443 496.445C536.794 492.373 530.655 489.032 524.172 486.5L502.039 475.24C489.1 468.653 475.939 462.371 463.169 455.462C456.682 451.953 445.727 444.465 443.335 455.965C440.29 470.718 439.671 486.144 437.6 501.072C437.496 504.062 436.639 506.977 435.109 509.545C433.579 512.113 431.426 514.251 428.85 515.761C425.948 516.946 422.788 517.35 419.682 516.934C416.577 516.517 413.633 515.294 411.145 513.385C353.718 481.797 296.46 449.858 239.115 418.101C232.01 414.164 224.811 410.344 217.781 406.273C215.085 405.005 212.755 403.067 211.014 400.644C209.272 398.221 208.176 395.393 207.829 392.427C206.989 376.773 225.826 375.732 236.694 373.403C268.616 366.587 300.526 359.707 332.425 352.766L428.681 332.017L452.599 326.864C459.342 325.407 466.232 323.354 472.783 326.67C486.842 333.848 477.059 351.514 473.157 361.804C470.339 369.239 467.288 376.574 464.546 384.032C463.513 386.858 461.629 390.385 462.796 393.45C463.405 394.792 464.449 395.887 465.759 396.558C467.068 397.228 468.565 397.434 470.006 397.141C477.59 395.52 485.047 393.354 492.32 390.66C499.997 388.396 507.68 386.185 515.363 383.944C530.834 379.432 546.301 374.914 561.764 370.391C575.001 366.501 589.183 363.658 600.517 355.357C609.789 348.565 616.837 339.162 620.766 328.344C625.742 314.503 623.846 300.061 622.464 285.776C621.32 274.574 623.502 297.1 622.411 285.816Z" fill="url(#paint0_linear_42_1676)"/>
<defs>
<linearGradient id="paint0_linear_42_1676" x1="312" y1="0" x2="312" y2="625" gradientUnits="userSpaceOnUse">
<stop stop-color="#80FFF3" stop-opacity="0.61"/>
<stop offset="1" stop-color="#80FFF3" stop-opacity="0"/>
</linearGradient>
</defs>
</svg>
